<mxfile host="app.diagrams.net" modified="2024-05-10T09:18:50.184Z" agent="Mozilla/5.0 (Macintosh; Intel Mac OS X 10_15_7) AppleWebKit/537.36 (KHTML, like Gecko) Chrome/124.0.0.0 Safari/537.36" version="24.0.0" etag="sjBLGwoPV37YMnWsj8BY" type="github">
  <diagram name="第 1 页" id="oTX6JDn8RqceTvOUyefy">
    <mxGraphModel>
      <root>
        <mxCell id="0" />
        <mxCell id="1" parent="0" />
      </root>
    </mxGraphModel>
  </diagram>
</mxfile>
